<?xml version="1.0" encoding="UTF-8"?>
<svg id="Layer_1" data-name="Layer 1" xmlns="http://www.w3.org/2000/svg" viewBox="0 0 1366 768">
  <defs>
    <style>
      .cls-1 {
        fill: #f5f5f5;
      }
    </style>
  </defs>
  <path class="cls-1" d="M473.33,372c0,13.83-11.59,17.43-23.96,17.43h-41.19v-68.17h36.81c13.05,0,26.97,2.34,26.97,16.75,0,11.59-8.86,15.19-19.38,15.97v3.31c11.1,.88,20.74,2.34,20.74,14.7Zm-50.54-39.93v19.57h22.69c7.21,0,12.56-3.6,12.56-10.23,0-7.01-5.94-9.35-13.83-9.35h-21.42Zm36.13,37.69c0-7.11-5.45-10.32-13.54-10.32h-22.59v20.35h24.54c6.52,0,11.59-3.21,11.59-10.03Z"/>
  <path class="cls-1" d="M557.85,369.57c0,14.41-16.85,21.23-37.78,21.23-32.23,0-37.3-14.22-37.3-23.57h15.87c-.1,9.25,8.28,13.05,21.33,13.05,15.19,0,22.5-3.6,22.5-10.52,0-18.79-58.72,1.75-58.72-28.73,0-13.05,13.24-20.74,37.59-20.74,20.74,0,35.84,6.72,35.54,24.35h-14.9c0-10.13-8.18-14.12-20.65-14.12-13.24,0-21.72,3.31-21.72,11.3,0,17.14,58.23-.58,58.23,27.75Z"/>
  <path class="cls-1" d="M586.68,332.08v19.57h33.11v8.86h-33.11v28.92h-14.61v-68.17h50.93v10.81h-36.32Z"/>
</svg>